<?xml version="1.0" encoding="UTF-8"?>
<svg id="Layer_2" data-name="Layer 2" xmlns="http://www.w3.org/2000/svg" viewBox="0 0 176 176">
  <defs>
    <style>
      .cls-1 {
        fill: #fff;
      }

      .cls-2 {
        fill: #8cc63f;
      }

      .cls-3 {
        fill: none;
        stroke: #f7931e;
        stroke-width: 5px;
      }

      .cls-3, .cls-4 {
        stroke-miterlimit: 10;
      }

      .cls-4 {
        fill: #0071bc;
        stroke: #0071bc;
      }
    </style>
  </defs>
  <g id="Layer_1-2" data-name="Layer 1">
    <g>
      <circle class="cls-4" cx="88" cy="88" r="87.5"/>
      <g>
        <path class="cls-1" d="M130.94,45.6c-.68,2.64-1.42,5.24-2.42,7.78-.13,.33-.27,.66-.4,.99,.36-.89,.12-.28,.03-.09-.3,.65-.59,1.3-.9,1.95-.57,1.19-1.19,2.35-1.84,3.49-1.33,2.32-2.82,4.51-4.41,6.65,.54-.72,.15-.19,.03-.04-.23,.29-.46,.57-.69,.86-.39,.48-.78,.94-1.19,1.41-.93,1.07-1.9,2.12-2.89,3.13-1.89,1.92-3.89,3.72-5.99,5.4-.11,.08-1.1,.86-.28,.23-.25,.19-.5,.38-.76,.57-.56,.42-1.13,.83-1.7,1.23-1.15,.81-2.33,1.58-3.53,2.32-2.43,1.5-4.94,2.86-7.53,4.07-1.09,.51-2.24,.93-3.25,1.58s-2.04,1.69-2.33,2.96c-.24,1.05-.23,2.18-.29,3.26-.41,6.76-.54,13.54-.98,20.31l2.23-3.89c-10.43,5.51-20.67,11.74-28.91,20.32-1.95,2.03-3.96,4.28-5.16,6.85-.99,2.13-.67,4.95,1.61,6.16,1.99,1.05,5.1,.66,6.16-1.61,.27-.58,.59-1.14,.94-1.67,.2-.31,.42-.6,.63-.9,.3-.42,.52-.28-.15,.18,.2-.14,.37-.46,.52-.64,1.21-1.44,2.54-2.79,3.92-4.08,1.69-1.59,3.45-3.09,5.27-4.53,.23-.18,1.31-1.02,.61-.49,.47-.36,.93-.71,1.41-1.06,1-.74,2.02-1.47,3.05-2.18,3.92-2.71,8-5.07,12.21-7.28,.8-.42,1.65-.79,2.41-1.27,2.99-1.89,2.42-6.51,2.54-9.66,.21-5.54,.46-11.07,.83-16.6l-.61,2.27c-1.04,2.43-1.91,1.57-1.17,1.22,.18-.08,.35-.19,.52-.28,.48-.25,.98-.46,1.47-.68,1.07-.48,2.13-.99,3.18-1.52,1.85-.94,3.65-1.95,5.42-3.04,3.78-2.33,7.37-5.01,10.69-7.96,6.25-5.53,11.64-12.27,15.4-19.74,2.19-4.35,3.77-8.88,4.99-13.58,.59-2.28-.75-4.99-3.14-5.54s-4.91,.7-5.54,3.14h0Z"/>
        <g>
          <ellipse class="cls-1" cx="87.04" cy="68.33" rx="9.91" ry="10.23"/>
          <path class="cls-1" d="M92.45,68.33c0,.29-.03,.58-.04,.87-.02,.58-.23,.01,.06-.35-.18,.22-.23,1.07-.32,1.36-.07,.22-.15,.43-.22,.65-.19,.59,.53-1.01,.07-.2-.24,.43-.49,.86-.75,1.28-.37,.6-.34,0,.14-.16-.07,.02-.28,.32-.35,.4-.2,.22-.88,.65-.96,.92l.49-.37c-.14,.11-.29,.21-.43,.31-.15,.1-.3,.19-.45,.28-.19,.11-.39,.21-.58,.32-.94,.54,.79-.22-.03,.02-.43,.13-.87,.25-1.3,.36s-.36-.17,.38-.03c-.2-.04-.49,.05-.69,.05-.42,.02-.84-.01-1.26-.03-.98-.04,1.05,.26,.11,0-.26-.07-.53-.12-.79-.2-.21-.06-.43-.17-.64-.21-.57-.12,1.01,.52,.21,.09-.39-.22-.78-.41-1.15-.66-.12-.08-.31-.26-.43-.31,.78,.28,.56,.49,.19,.11-.23-.23-.72-.96-1.01-1.06l.37,.49c-.11-.14-.21-.29-.31-.44-.1-.15-.19-.3-.29-.46-.11-.19-.21-.4-.32-.59-.2-.34-.2-.83,.06,.2-.11-.44-.31-.87-.42-1.32-.04-.18-.07-.37-.12-.55-.22-.88,.08,1.08,0-.07-.03-.43-.03-.87,0-1.3l.02-.29c.05-.5,.03-.38-.06,.35,.05-.06,.1-.51,.11-.55,.1-.45,.24-.89,.39-1.33,.29-.88-.42,.69-.08,.19,.17-.26,.29-.57,.44-.84,.09-.15,.19-.31,.29-.46,.06-.1,.55-.85,.12-.2s.06-.05,.16-.16c.15-.16,.31-.32,.47-.48,.11-.11,.45-.31,.5-.44-.12,.36-.75,.53-.28,.22s.9-.55,1.37-.81c.65-.36-.25,.15-.34,.13,.16,.02,.6-.21,.76-.26s.35-.1,.52-.14l.27-.06c.48-.09,.36-.08-.38,.03,.37,.08,.87-.07,1.26-.06,.23,0,.47,.02,.7,.03,.95,.04-1.02-.25-.11,0,.37,.1,1.18,.48,1.55,.46-.53,.03-.8-.39-.34-.13,.27,.15,.55,.29,.82,.45,.19,.12,.37,.24,.56,.36,.77,.5-.73-.69-.08-.04,.23,.23,.82,1.04,1.11,1.15-.39-.15-.52-.74-.22-.27,.17,.27,.35,.52,.5,.8,.11,.2,.21,.4,.32,.6,.45,.82-.31-.97-.03-.07,.17,.54,.31,1.06,.44,1.61,.19,.77-.08-.27-.04-.36-.1,.17,.06,.93,.06,1.15,.03,2.35,2.05,4.61,4.5,4.5s4.53-1.98,4.5-4.5c-.08-6.26-3.87-11.72-9.73-13.92-5.4-2.03-11.95-.15-15.57,4.31-3.94,4.86-4.69,11.74-1.46,17.2s9.39,8.03,15.47,6.79c6.68-1.36,11.19-7.77,11.28-14.38,.03-2.35-2.09-4.61-4.5-4.5s-4.47,1.98-4.5,4.5Z"/>
        </g>
        <path class="cls-1" d="M35.42,47.77c1.87,8.17,5.08,15.89,10.03,22.69s11.63,13.14,19.05,17.89c2.04,1.31,4.15,2.5,6.31,3.59,1.04,.52,2.09,1.02,3.15,1.49,.62,.27,1.25,.53,1.86,.81,.21,.1,.41,.2,.62,.3,.49,.24,.67,.74-.26-.25l-1.16-1.99c-.11-.8-.14-.86-.1-.2,0,.27,.02,.54,.03,.81,.01,.36,.02,.71,.03,1.07,.02,.7,.04,1.4,.06,2.11,.05,1.74,.11,3.47,.14,5.21,.06,4.26,0,8.52,.15,12.78,.05,1.53,.8,3.16,2.23,3.89,4.26,2.18,8.5,4.33,12.52,6.93,1.39,.9,2.76,1.83,4.11,2.8,.7,.5,1.39,1,2.08,1.52,.31,.24,.63,.47,.94,.71-.65-.5,.25,.2,.46,.37,2.37,1.89,4.67,3.89,6.78,6.07,.5,.52,.99,1.05,1.47,1.59,.22,.25,.44,.51,.66,.77,.09,.11,.18,.22,.26,.33,.39,.48-.14-.11-.21-.27,.21,.52,.74,1.04,1.04,1.53,.28,.46,.52,.93,.74,1.41,.95,2.16,4.28,2.83,6.16,1.61,2.24-1.44,2.63-3.84,1.61-6.16s-2.73-4.31-4.4-6.15c-2.02-2.22-4.26-4.23-6.57-6.14-5.44-4.49-11.3-8.57-17.55-11.86-1.84-.97-3.71-1.89-5.57-2.84l2.23,3.89c-.22-6.33-.14-12.67-.31-19.01-.03-1.29-.02-2.6-.12-3.89-.2-2.5-1.77-3.93-3.91-4.88-2.61-1.17-5.2-2.35-7.69-3.76s-4.76-2.88-6.99-4.53c-.25-.19-.5-.38-.75-.56-.6-.44,.81,.66-.12-.1-.48-.39-.97-.78-1.44-1.18-1.13-.95-2.24-1.94-3.3-2.96-1.93-1.85-3.74-3.83-5.42-5.91-.1-.13-.85-1.09-.19-.23-.15-.19-.29-.38-.44-.58-.39-.53-.78-1.06-1.16-1.61-.78-1.13-1.53-2.28-2.23-3.46s-1.41-2.48-2.04-3.75c-.37-.74-.71-1.5-1.05-2.25-.09-.19-.33-.8,.03,.1-.18-.44-.36-.87-.53-1.31-1.11-2.88-1.89-5.83-2.58-8.83-.53-2.3-3.29-3.87-5.54-3.14-2.4,.78-3.71,3.07-3.14,5.54h0Z"/>
      </g>
      <g>
        <path class="cls-2" d="M144.96,44.45c.91,3.69-2.74,8.8-8.18,9.79-5.44,.99-10.44-1.81-11.51-6.2-.17-.71-1.35-3.96,1.7-7.19,1.57-1.66,3.55-3.04,6.48-2.61,1.89,.28-.49,.7,.7-.1,1.77-1.18,4.43-.76,6.49,.48,2.47,1.48,3.83,3.83,4.32,5.83Z"/>
        <path class="cls-2" d="M134.11,34.93c.5-.44,1.19-.71,1.88-.66-.12,.67-.43,1.3-.9,1.82-.14,.15-.29,.3-.47,.4-.25,.14-1.04,.45-1.27,.18-.15-.18-.02-.74,.09-.93,.18-.3,.4-.58,.67-.82Z"/>
        <path class="cls-2" d="M130.68,35.35c1.63,.65,2.59,1.66,2.9,2.62"/>
      </g>
      <g>
        <line class="cls-3" x1="29.93" y1="44.69" x2="52.11" y2="45.04"/>
        <line class="cls-3" x1="50.63" y1="49.95" x2="50.63" y2="39.42"/>
        <line class="cls-3" x1="29.73" y1="49.95" x2="29.73" y2="39.42"/>
      </g>
      <g>
        <path class="cls-1" d="M130.94,45.6c-.68,2.64-1.42,5.24-2.42,7.78-.13,.33-.27,.66-.4,.99,.36-.89,.12-.28,.03-.09-.3,.65-.59,1.3-.9,1.95-.57,1.19-1.19,2.35-1.84,3.49-1.33,2.32-2.82,4.51-4.41,6.65,.54-.72,.15-.19,.03-.04-.23,.29-.46,.57-.69,.86-.39,.48-.78,.94-1.19,1.41-.93,1.07-1.9,2.12-2.89,3.13-1.89,1.92-3.89,3.72-5.99,5.4-.11,.08-1.1,.86-.28,.23-.25,.19-.5,.38-.76,.57-.56,.42-1.13,.83-1.7,1.23-1.15,.81-2.33,1.58-3.53,2.32-2.43,1.5-4.94,2.86-7.53,4.07-1.09,.51-2.24,.93-3.25,1.58s-2.04,1.69-2.33,2.96c-.24,1.05-.23,2.18-.29,3.26-.41,6.76-.54,13.54-.98,20.31l2.23-3.89c-10.43,5.51-20.67,11.74-28.91,20.32-1.95,2.03-3.96,4.28-5.16,6.85-.99,2.13-.67,4.95,1.61,6.16,1.99,1.05,5.1,.66,6.16-1.61,.27-.58,.59-1.14,.94-1.67,.2-.31,.42-.6,.63-.9,.3-.42,.52-.28-.15,.18,.2-.14,.37-.46,.52-.64,1.21-1.44,2.54-2.79,3.92-4.08,1.69-1.59,3.45-3.09,5.27-4.53,.23-.18,1.31-1.02,.61-.49,.47-.36,.93-.71,1.41-1.06,1-.74,2.02-1.47,3.05-2.18,3.92-2.71,8-5.07,12.21-7.28,.8-.42,1.65-.79,2.41-1.27,2.99-1.89,2.42-6.51,2.54-9.66,.21-5.54,.46-11.07,.83-16.6l-.61,2.27c-1.04,2.43-1.91,1.57-1.17,1.22,.18-.08,.35-.19,.52-.28,.48-.25,.98-.46,1.47-.68,1.07-.48,2.13-.99,3.18-1.52,1.85-.94,3.65-1.95,5.42-3.04,3.78-2.33,7.37-5.01,10.69-7.96,6.25-5.53,11.64-12.27,15.4-19.74,2.19-4.35,3.77-8.88,4.99-13.58,.59-2.28-.75-4.99-3.14-5.54s-4.91,.7-5.54,3.14h0Z"/>
        <g>
          <ellipse class="cls-1" cx="87.04" cy="68.33" rx="9.91" ry="10.23"/>
          <path class="cls-1" d="M92.45,68.33c0,.29-.03,.58-.04,.87-.02,.58-.23,.01,.06-.35-.18,.22-.23,1.07-.32,1.36-.07,.22-.15,.43-.22,.65-.19,.59,.53-1.01,.07-.2-.24,.43-.49,.86-.75,1.28-.37,.6-.34,0,.14-.16-.07,.02-.28,.32-.35,.4-.2,.22-.88,.65-.96,.92l.49-.37c-.14,.11-.29,.21-.43,.31-.15,.1-.3,.19-.45,.28-.19,.11-.39,.21-.58,.32-.94,.54,.79-.22-.03,.02-.43,.13-.87,.25-1.3,.36s-.36-.17,.38-.03c-.2-.04-.49,.05-.69,.05-.42,.02-.84-.01-1.26-.03-.98-.04,1.05,.26,.11,0-.26-.07-.53-.12-.79-.2-.21-.06-.43-.17-.64-.21-.57-.12,1.01,.52,.21,.09-.39-.22-.78-.41-1.15-.66-.12-.08-.31-.26-.43-.31,.78,.28,.56,.49,.19,.11-.23-.23-.72-.96-1.01-1.06l.37,.49c-.11-.14-.21-.29-.31-.44-.1-.15-.19-.3-.29-.46-.11-.19-.21-.4-.32-.59-.2-.34-.2-.83,.06,.2-.11-.44-.31-.87-.42-1.32-.04-.18-.07-.37-.12-.55-.22-.88,.08,1.08,0-.07-.03-.43-.03-.87,0-1.3l.02-.29c.05-.5,.03-.38-.06,.35,.05-.06,.1-.51,.11-.55,.1-.45,.24-.89,.39-1.33,.29-.88-.42,.69-.08,.19,.17-.26,.29-.57,.44-.84,.09-.15,.19-.31,.29-.46,.06-.1,.55-.85,.12-.2s.06-.05,.16-.16c.15-.16,.31-.32,.47-.48,.11-.11,.45-.31,.5-.44-.12,.36-.75,.53-.28,.22s.9-.55,1.37-.81c.65-.36-.25,.15-.34,.13,.16,.02,.6-.21,.76-.26s.35-.1,.52-.14l.27-.06c.48-.09,.36-.08-.38,.03,.37,.08,.87-.07,1.26-.06,.23,0,.47,.02,.7,.03,.95,.04-1.02-.25-.11,0,.37,.1,1.18,.48,1.55,.46-.53,.03-.8-.39-.34-.13,.27,.15,.55,.29,.82,.45,.19,.12,.37,.24,.56,.36,.77,.5-.73-.69-.08-.04,.23,.23,.82,1.04,1.11,1.15-.39-.15-.52-.74-.22-.27,.17,.27,.35,.52,.5,.8,.11,.2,.21,.4,.32,.6,.45,.82-.31-.97-.03-.07,.17,.54,.31,1.06,.44,1.61,.19,.77-.08-.27-.04-.36-.1,.17,.06,.93,.06,1.15,.03,2.35,2.05,4.61,4.5,4.5s4.53-1.98,4.5-4.5c-.08-6.26-3.87-11.72-9.73-13.92-5.4-2.03-11.95-.15-15.57,4.31-3.94,4.86-4.69,11.74-1.46,17.2s9.39,8.03,15.47,6.79c6.68-1.36,11.19-7.77,11.28-14.38,.03-2.35-2.09-4.61-4.5-4.5s-4.47,1.98-4.5,4.5Z"/>
        </g>
        <path class="cls-1" d="M35.42,47.77c1.87,8.17,5.08,15.89,10.03,22.69s11.63,13.14,19.05,17.89c2.04,1.31,4.15,2.5,6.31,3.59,1.04,.52,2.09,1.02,3.15,1.49,.62,.27,1.25,.53,1.86,.81,.21,.1,.41,.2,.62,.3,.49,.24,.67,.74-.26-.25l-1.16-1.99c-.11-.8-.14-.86-.1-.2,0,.27,.02,.54,.03,.81,.01,.36,.02,.71,.03,1.07,.02,.7,.04,1.4,.06,2.11,.05,1.74,.11,3.47,.14,5.21,.06,4.26,0,8.52,.15,12.78,.05,1.53,.8,3.16,2.23,3.89,4.26,2.18,8.5,4.33,12.52,6.93,1.39,.9,2.76,1.83,4.11,2.8,.7,.5,1.39,1,2.08,1.52,.31,.24,.63,.47,.94,.71-.65-.5,.25,.2,.46,.37,2.37,1.89,4.67,3.89,6.78,6.07,.5,.52,.99,1.05,1.47,1.59,.22,.25,.44,.51,.66,.77,.09,.11,.18,.22,.26,.33,.39,.48-.14-.11-.21-.27,.21,.52,.74,1.04,1.04,1.53,.28,.46,.52,.93,.74,1.41,.95,2.16,4.28,2.83,6.16,1.61,2.24-1.44,2.63-3.84,1.61-6.16s-2.73-4.31-4.4-6.15c-2.02-2.22-4.26-4.23-6.57-6.14-5.44-4.49-11.3-8.57-17.55-11.86-1.84-.97-3.71-1.89-5.57-2.84l2.23,3.89c-.22-6.33-.14-12.67-.31-19.01-.03-1.29-.02-2.6-.12-3.89-.2-2.5-1.77-3.93-3.91-4.88-2.61-1.17-5.2-2.35-7.69-3.76s-4.76-2.88-6.99-4.53c-.25-.19-.5-.38-.75-.56-.6-.44,.81,.66-.12-.1-.48-.39-.97-.78-1.44-1.18-1.13-.95-2.24-1.94-3.3-2.96-1.93-1.85-3.74-3.83-5.42-5.91-.1-.13-.85-1.09-.19-.23-.15-.19-.29-.38-.44-.58-.39-.53-.78-1.06-1.16-1.61-.78-1.13-1.53-2.28-2.23-3.46s-1.41-2.48-2.04-3.75c-.37-.74-.71-1.5-1.05-2.25-.09-.19-.33-.8,.03,.1-.18-.44-.36-.87-.53-1.31-1.11-2.88-1.89-5.83-2.58-8.83-.53-2.3-3.29-3.87-5.54-3.14-2.4,.78-3.71,3.07-3.14,5.54h0Z"/>
      </g>
      <g>
        <path class="cls-2" d="M144.96,44.45c.91,3.69-2.74,8.8-8.18,9.79-5.44,.99-10.44-1.81-11.51-6.2-.17-.71-1.35-3.96,1.7-7.19,1.57-1.66,3.55-3.04,6.48-2.61,1.89,.28-.49,.7,.7-.1,1.77-1.18,4.43-.76,6.49,.48,2.47,1.48,3.83,3.83,4.32,5.83Z"/>
        <path class="cls-2" d="M134.11,34.93c.5-.44,1.19-.71,1.88-.66-.12,.67-.43,1.3-.9,1.82-.14,.15-.29,.3-.47,.4-.25,.14-1.04,.45-1.27,.18-.15-.18-.02-.74,.09-.93,.18-.3,.4-.58,.67-.82Z"/>
        <path class="cls-2" d="M130.68,35.35c1.63,.65,2.59,1.66,2.9,2.62"/>
      </g>
      <g>
        <line class="cls-3" x1="29.93" y1="44.69" x2="52.11" y2="45.04"/>
        <line class="cls-3" x1="50.63" y1="49.95" x2="50.63" y2="39.42"/>
        <line class="cls-3" x1="29.73" y1="49.95" x2="29.73" y2="39.42"/>
      </g>
      <g>
        <path class="cls-2" d="M144.96,44.45c.91,3.69-2.74,8.8-8.18,9.79-5.44,.99-10.44-1.81-11.51-6.2-.17-.71-1.35-3.96,1.7-7.19,1.57-1.66,3.55-3.04,6.48-2.61,1.89,.28-.49,.7,.7-.1,1.77-1.18,4.43-.76,6.49,.48,2.47,1.48,3.83,3.83,4.32,5.83Z"/>
        <path class="cls-2" d="M134.11,34.93c.5-.44,1.19-.71,1.88-.66-.12,.67-.43,1.3-.9,1.82-.14,.15-.29,.3-.47,.4-.25,.14-1.04,.45-1.27,.18-.15-.18-.02-.74,.09-.93,.18-.3,.4-.58,.67-.82Z"/>
        <path class="cls-2" d="M130.68,35.35c1.63,.65,2.59,1.66,2.9,2.62"/>
      </g>
      <g>
        <line class="cls-3" x1="29.93" y1="44.69" x2="52.11" y2="45.04"/>
        <line class="cls-3" x1="50.63" y1="49.95" x2="50.63" y2="39.42"/>
        <line class="cls-3" x1="29.73" y1="49.95" x2="29.73" y2="39.42"/>
      </g>
      <g>
        <path class="cls-2" d="M144.96,44.45c.91,3.69-2.74,8.8-8.18,9.79-5.44,.99-10.44-1.81-11.51-6.2-.17-.71-1.35-3.96,1.7-7.19,1.57-1.66,3.55-3.04,6.48-2.61,1.89,.28-.49,.7,.7-.1,1.77-1.18,4.43-.76,6.49,.48,2.47,1.48,3.83,3.83,4.32,5.83Z"/>
        <path class="cls-2" d="M134.11,34.93c.5-.44,1.19-.71,1.88-.66-.12,.67-.43,1.3-.9,1.82-.14,.15-.29,.3-.47,.4-.25,.14-1.04,.45-1.27,.18-.15-.18-.02-.74,.09-.93,.18-.3,.4-.58,.67-.82Z"/>
        <path class="cls-2" d="M130.68,35.35c1.63,.65,2.59,1.66,2.9,2.62"/>
      </g>
      <g>
        <line class="cls-3" x1="29.93" y1="44.69" x2="52.11" y2="45.04"/>
        <line class="cls-3" x1="50.63" y1="49.95" x2="50.63" y2="39.42"/>
        <line class="cls-3" x1="29.73" y1="49.95" x2="29.73" y2="39.42"/>
      </g>
      <g>
        <path class="cls-2" d="M144.96,44.45c.91,3.69-2.74,8.8-8.18,9.79-5.44,.99-10.44-1.81-11.51-6.2-.17-.71-1.35-3.96,1.7-7.19,1.57-1.66,3.55-3.04,6.48-2.61,1.89,.28-.49,.7,.7-.1,1.77-1.18,4.43-.76,6.49,.48,2.47,1.48,3.83,3.83,4.32,5.83Z"/>
        <path class="cls-2" d="M134.11,34.93c.5-.44,1.19-.71,1.88-.66-.12,.67-.43,1.3-.9,1.82-.14,.15-.29,.3-.47,.4-.25,.14-1.04,.45-1.27,.18-.15-.18-.02-.74,.09-.93,.18-.3,.4-.58,.67-.82Z"/>
        <path class="cls-2" d="M130.68,35.35c1.63,.65,2.59,1.66,2.9,2.62"/>
      </g>
      <g>
        <line class="cls-3" x1="29.93" y1="44.69" x2="52.11" y2="45.04"/>
        <line class="cls-3" x1="50.63" y1="49.95" x2="50.63" y2="39.42"/>
        <line class="cls-3" x1="29.73" y1="49.95" x2="29.73" y2="39.42"/>
      </g>
      <g>
        <path class="cls-2" d="M144.96,44.45c.91,3.69-2.74,8.8-8.18,9.79-5.44,.99-10.44-1.81-11.51-6.2-.17-.71-1.35-3.96,1.7-7.19,1.57-1.66,3.55-3.04,6.48-2.61,1.89,.28-.49,.7,.7-.1,1.77-1.18,4.43-.76,6.49,.48,2.47,1.48,3.83,3.83,4.32,5.83Z"/>
        <path class="cls-2" d="M134.11,34.93c.5-.44,1.19-.71,1.88-.66-.12,.67-.43,1.3-.9,1.82-.14,.15-.29,.3-.47,.4-.25,.14-1.04,.45-1.27,.18-.15-.18-.02-.74,.09-.93,.18-.3,.4-.58,.67-.82Z"/>
        <path class="cls-2" d="M130.68,35.35c1.63,.65,2.59,1.66,2.9,2.62"/>
      </g>
      <g>
        <line class="cls-3" x1="29.93" y1="44.69" x2="52.11" y2="45.04"/>
        <line class="cls-3" x1="50.63" y1="49.95" x2="50.63" y2="39.42"/>
        <line class="cls-3" x1="29.73" y1="49.95" x2="29.73" y2="39.42"/>
      </g>
      <g>
        <path class="cls-2" d="M144.96,44.45c.91,3.69-2.74,8.8-8.18,9.79-5.44,.99-10.44-1.81-11.51-6.2-.17-.71-1.35-3.96,1.7-7.19,1.57-1.66,3.55-3.04,6.48-2.61,1.89,.28-.49,.7,.7-.1,1.77-1.18,4.43-.76,6.49,.48,2.47,1.48,3.83,3.83,4.32,5.83Z"/>
        <path class="cls-2" d="M134.11,34.93c.5-.44,1.19-.71,1.88-.66-.12,.67-.43,1.3-.9,1.82-.14,.15-.29,.3-.47,.4-.25,.14-1.04,.45-1.27,.18-.15-.18-.02-.74,.09-.93,.18-.3,.4-.58,.67-.82Z"/>
        <path class="cls-2" d="M130.68,35.35c1.63,.65,2.59,1.66,2.9,2.62"/>
      </g>
      <g>
        <line class="cls-3" x1="29.93" y1="44.69" x2="52.11" y2="45.04"/>
        <line class="cls-3" x1="50.63" y1="49.95" x2="50.63" y2="39.42"/>
        <line class="cls-3" x1="29.73" y1="49.95" x2="29.73" y2="39.42"/>
      </g>
    </g>
  </g>
</svg>