<?xml version="1.0" encoding="UTF-8"?>
<svg id="Layer_2" data-name="Layer 2" xmlns="http://www.w3.org/2000/svg" viewBox="0 0 450.39 81.87">
  <defs>
    <style>
      .cls-1 {
        fill: #fff;
      }

      .cls-2 {
        fill: none;
      }
    </style>
  </defs>
  <g id="Layer_1-2" data-name="Layer 1">
    <ellipse class="cls-1" cx="41.28" cy="41.01" rx="39.77" ry="40.15"/>
    <g>
      <path d="M40.93,6.15C21.71,6.15,6.12,21.74,6.12,40.97s15.59,34.81,34.81,34.81,34.82-15.59,34.82-34.81S60.16,6.15,40.93,6.15Z"/>
      <path class="cls-2" d="M40.93,1.09C18.91,1.09,1.05,18.94,1.05,40.97s17.86,39.88,39.88,39.88,39.88-17.85,39.88-39.88S62.96,1.09,40.93,1.09Z"/>
    </g>
    <g>
      <path d="M103.47,31.93c-.09,1.46-.14,3.01-.14,4.66v8.67c0,3.05,.12,4.75,.36,5.11,.24,.36,1.04,.55,2.39,.55h1.4v.96c-2.39-.07-4.27-.11-5.64-.11-1.21,0-3.37,.04-6.46,.11v-.96h1.82c.85,0,1.4-.08,1.64-.23,.24-.16,.4-.48,.47-.96,.07-.48,.14-1.95,.22-4.41v-8.1l-.06-3.14c-.03-1.3-.21-2.1-.56-2.4-.34-.29-1.18-.44-2.52-.44h-1.01v-.96c1.69,.05,3.82,.08,6.41,.08,1.52,0,3.22-.03,5.08-.09,1.23-.04,2.16-.06,2.79-.06,3.26,0,5.64,.44,7.12,1.33,1.47,.89,2.21,2.09,2.21,3.61,0,1.1-.43,2.16-1.28,3.18-.85,1.02-2.05,1.83-3.61,2.45-1.56,.62-3.22,.93-4.99,.93-.81,0-1.82-.1-3.04-.29l-.4-1.14c1.19,.22,2.18,.33,2.97,.33,1.86,0,3.34-.42,4.43-1.27,1.09-.84,1.64-2,1.64-3.47s-.58-2.52-1.75-3.32c-1.17-.79-2.9-1.19-5.21-1.19-1.31,0-2.74,.19-4.29,.56Z"/>
      <path d="M107.61,52.01h-.14c-2.37-.07-4.27-.11-5.64-.11-1.21,0-3.38,.04-6.45,.11h-.14s0-1.23,0-1.23h1.96c1.02,0,1.41-.12,1.56-.21,.21-.13,.34-.42,.4-.86,.07-.48,.14-1.96,.22-4.39v-8.1l-.06-3.14c-.03-1.57-.29-2.11-.51-2.29-.22-.19-.81-.41-2.43-.41h-1.15v-1.24h.14c1.68,.05,3.83,.08,6.41,.08,1.52,0,3.22-.03,5.07-.09,1.2-.04,2.14-.06,2.8-.06,3.28,0,5.7,.46,7.19,1.35,1.51,.91,2.27,2.17,2.27,3.73,0,1.13-.44,2.23-1.31,3.27-.86,1.03-2.09,1.87-3.67,2.49-1.57,.62-3.26,.94-5.04,.94-.81,0-1.84-.1-3.06-.29h-.08s-.51-1.46-.51-1.46l.24,.04c1.17,.22,2.16,.33,2.95,.33,1.82,0,3.28-.42,4.35-1.24,1.05-.81,1.58-1.94,1.58-3.36s-.57-2.44-1.69-3.2c-1.14-.77-2.87-1.17-5.13-1.17-1.26,0-2.66,.18-4.16,.53-.09,1.41-.13,2.94-.13,4.55v8.67c0,3.74,.19,4.8,.34,5.04,.15,.22,.66,.48,2.27,.48h1.54v1.24Z"/>
    </g>
    <g>
      <path class="cls-1" d="M18.13,31.87c-.09,1.46-.14,3.01-.14,4.66v8.67c0,3.05,.12,4.75,.36,5.11,.24,.36,1.04,.54,2.39,.54h1.4v.96c-2.39-.07-4.27-.11-5.64-.11-1.21,0-3.37,.04-6.46,.11v-.96h1.82c.85,0,1.4-.08,1.64-.23,.24-.16,.4-.48,.47-.96,.07-.48,.14-1.95,.22-4.41v-8.1l-.06-3.14c-.03-1.3-.21-2.1-.56-2.4-.34-.29-1.18-.44-2.52-.44h-1.01v-.96c1.69,.05,3.82,.08,6.41,.08,1.52,0,3.22-.03,5.08-.09,1.23-.04,2.16-.06,2.79-.06,3.26,0,5.64,.44,7.12,1.33,1.47,.89,2.21,2.09,2.21,3.61,0,1.1-.43,2.16-1.28,3.18-.85,1.02-2.05,1.83-3.61,2.45-1.56,.62-3.22,.93-4.99,.93-.81,0-1.82-.1-3.04-.29l-.4-1.14c1.19,.22,2.18,.33,2.97,.33,1.86,0,3.34-.42,4.43-1.27,1.09-.84,1.64-2,1.64-3.47s-.58-2.52-1.75-3.32c-1.17-.79-2.9-1.19-5.21-1.19-1.31,0-2.74,.19-4.29,.56Z"/>
      <path class="cls-1" d="M22.28,51.95h-.14c-2.37-.07-4.27-.11-5.64-.11-1.21,0-3.38,.04-6.45,.11h-.14s0-1.23,0-1.23h1.96c1.02,0,1.41-.12,1.56-.21,.21-.13,.34-.42,.4-.86,.07-.48,.14-1.96,.22-4.39v-8.1l-.06-3.14c-.03-1.57-.29-2.11-.51-2.29-.22-.19-.81-.41-2.43-.41h-1.15v-1.24h.14c1.68,.05,3.83,.08,6.41,.08,1.52,0,3.22-.03,5.07-.09,1.2-.04,2.14-.06,2.8-.06,3.28,0,5.7,.46,7.19,1.35,1.51,.91,2.27,2.17,2.27,3.73,0,1.13-.44,2.23-1.31,3.27-.86,1.03-2.09,1.87-3.67,2.49-1.57,.62-3.26,.94-5.04,.94-.81,0-1.84-.1-3.06-.29h-.08s-.51-1.46-.51-1.46l.24,.04c1.17,.22,2.16,.33,2.95,.33,1.82,0,3.28-.42,4.35-1.24,1.05-.81,1.58-1.94,1.58-3.36s-.57-2.44-1.69-3.2c-1.14-.77-2.87-1.17-5.13-1.17-1.26,0-2.66,.18-4.16,.53-.09,1.41-.13,2.94-.13,4.55v8.67c0,3.74,.19,4.8,.34,5.04,.15,.22,.66,.48,2.27,.48h1.54v1.24Z"/>
    </g>
    <g>
      <path d="M120.28,31.23v-.96c2.76,.07,4.78,.11,6.03,.11,1.32,0,3.26-.04,5.83-.11v.96h-1.48c-1.27,0-2.03,.18-2.29,.55-.26,.36-.38,2.01-.38,4.95v5.95c0,2.17,.16,3.69,.47,4.54,.32,.85,1.14,1.57,2.46,2.15,1.32,.59,3.09,.88,5.3,.88s4.2-.31,5.77-.94c1.08-.43,1.87-1.11,2.37-2.03,.5-.92,.75-2.65,.75-5.21v-5.72c0-2.65-.16-4.16-.48-4.54-.32-.38-1.19-.57-2.62-.57h-1.05v-.96c2.8,.07,4.58,.11,5.33,.11,1.23,0,2.76-.04,4.58-.11v.96h-1.38c-1.07,0-1.76,.22-2.07,.64-.3,.43-.46,1.94-.46,4.53v5.69c0,2.6-.17,4.35-.52,5.26-.34,.9-.97,1.72-1.88,2.45-.91,.73-2.12,1.3-3.64,1.73-1.52,.43-3.3,.64-5.35,.64s-3.97-.19-5.56-.57-2.79-.85-3.59-1.4c-.8-.56-1.38-1.24-1.74-2.04-.36-.8-.54-2.17-.54-4.1l.04-2.88v-4.63c0-2.85-.11-4.45-.33-4.79-.22-.34-.93-.52-2.13-.52h-1.44Z"/>
      <path d="M135.58,52.31c-2.12,0-4-.19-5.6-.57-1.6-.38-2.82-.86-3.64-1.42-.82-.57-1.42-1.28-1.79-2.1-.36-.82-.55-2.22-.55-4.16l.04-2.89v-4.63c0-3.5-.17-4.5-.31-4.72-.13-.21-.59-.45-2.02-.45h-1.57v-1.24h.14c2.74,.07,4.77,.11,6.03,.11,1.33,0,3.28-.04,5.82-.11h.14s0,1.23,0,1.23h-1.62c-1.51,0-2.02,.27-2.17,.49-.16,.23-.36,1.26-.36,4.87v5.95c0,2.15,.16,3.66,.47,4.49,.3,.81,1.1,1.51,2.38,2.08,1.3,.58,3.06,.87,5.24,.87s4.18-.31,5.72-.93c1.04-.42,1.81-1.08,2.3-1.96,.49-.89,.73-2.62,.73-5.15v-5.72c0-3.24-.24-4.21-.44-4.46-.2-.24-.8-.52-2.51-.52h-1.19v-1.24h.14c2.77,.07,4.56,.11,5.33,.11,1.23,0,2.77-.04,4.58-.11h.14s0,1.23,0,1.23h-1.52c-1.02,0-1.67,.2-1.95,.59-.2,.28-.43,1.27-.43,4.45v5.69c0,2.64-.17,4.38-.52,5.31-.35,.92-1,1.77-1.92,2.51-.92,.74-2.16,1.33-3.69,1.76-1.52,.43-3.33,.64-5.39,.64Z"/>
    </g>
    <g>
      <path d="M160.71,50.38c1.32,.05,2.61,.08,3.87,.08,2.54,0,4.52-.05,5.95-.15,1-.08,2.03-.23,3.1-.44l1.21-3.57h1.32c-.34,1.91-.6,3.7-.79,5.36-1.21,.15-2.87,.23-4.98,.23l-9.63-.12c-1.29,0-3.31,.05-6.05,.17v-.8c1.08-.35,1.72-.73,1.91-1.14,.2-.4,.29-2.01,.29-4.81v-8.35c0-3.04-.1-4.73-.29-5.08-.2-.35-.75-.52-1.65-.52h-2.21v-.96c3.21,.07,5.34,.11,6.39,.11,1.4,0,3.31-.04,5.71-.11v.96h-2.51c-.72,0-1.17,.15-1.36,.46-.19,.31-.28,1.59-.28,3.85v9.67l.06,4.28-.06,.89Z"/>
      <path d="M154.56,52.07v-1.05l.1-.03c1.04-.34,1.65-.7,1.83-1.07,.13-.26,.28-1.3,.28-4.75v-8.35c0-3.73-.15-4.78-.28-5.01-.17-.3-.7-.45-1.53-.45h-2.34v-1.24h.14c3.18,.07,5.33,.11,6.39,.11,1.41,0,3.33-.04,5.7-.11h.14s0,1.23,0,1.23h-2.65c-.66,0-1.08,.13-1.24,.4-.12,.2-.26,1.01-.26,3.77v9.67l.06,4.28-.05,.76c1.26,.05,2.51,.07,3.72,.07,2.52,0,4.51-.05,5.94-.15,.97-.08,1.98-.22,3-.42l1.22-3.58h1.58l-.03,.16c-.34,1.91-.6,3.71-.79,5.35v.11s-.12,.01-.12,.01c-1.21,.15-2.89,.23-5,.23l-9.63-.12c-1.3,0-3.33,.06-6.04,.17h-.14Z"/>
    </g>
    <g>
      <path d="M196.46,31.29c-.38,1.05-.58,2.45-.61,4.19h-1.4v-1.21c0-.79-.14-1.32-.42-1.61-.28-.28-1.02-.58-2.22-.9-1.19-.32-2.45-.48-3.77-.48-2.16,0-3.85,.41-5.09,1.23-1.23,.82-1.85,1.87-1.85,3.15,0,.81,.25,1.5,.76,2.08,.51,.58,1.19,1,2.04,1.26,.86,.26,2.67,.49,5.45,.68,2.78,.2,4.66,.47,5.64,.8,.98,.33,1.76,.87,2.35,1.61,.59,.74,.88,1.62,.88,2.63,0,2.04-1.13,3.79-3.4,5.25s-5.29,2.2-9.06,2.2c-1.29,0-2.6-.1-3.91-.3-1.32-.2-2.64-.49-3.98-.87,.24-1.21,.36-2.77,.34-4.67h1.38v.76c0,.98,.07,1.59,.2,1.82,.13,.23,.45,.48,.95,.74,.74,.39,1.63,.7,2.65,.9,1.02,.21,2.13,.31,3.32,.31,2.55,0,4.52-.45,5.91-1.35,1.39-.9,2.08-2.04,2.08-3.43,0-.81-.24-1.5-.71-2.06-.47-.56-1.13-.98-1.98-1.25-.85-.27-2.42-.48-4.71-.62-3.05-.18-5.12-.46-6.21-.82-1.09-.36-1.95-.94-2.57-1.72-.62-.78-.93-1.76-.93-2.92,0-1.97,.95-3.59,2.85-4.84,1.9-1.26,4.53-1.88,7.89-1.88,1.35,0,2.7,.11,4.06,.33,1.36,.22,2.71,.55,4.08,.99Z"/>
      <path d="M185.76,52.31c-1.3,0-2.62-.1-3.94-.3-1.32-.2-2.66-.49-3.99-.88l-.12-.04,.02-.12c.24-1.2,.35-2.76,.34-4.65v-.14s1.65,0,1.65,0v.9c0,1.19,.1,1.61,.18,1.75,.12,.21,.42,.44,.89,.69,.73,.39,1.61,.69,2.61,.89,1.01,.2,2.12,.31,3.29,.31,2.51,0,4.47-.45,5.83-1.33,1.34-.87,2.02-1.98,2.02-3.31,0-.77-.23-1.43-.68-1.97-.45-.54-1.1-.95-1.92-1.21-.84-.27-2.41-.48-4.68-.62-3.05-.18-5.15-.46-6.25-.83-1.11-.37-2-.97-2.63-1.77-.64-.81-.96-1.82-.96-3.01,0-2.01,.98-3.68,2.92-4.96,1.91-1.26,4.59-1.9,7.97-1.9,1.35,0,2.72,.11,4.08,.33,1.36,.22,2.74,.56,4.1,1l.14,.04-.05,.13c-.37,1.03-.57,2.42-.6,4.14v.14h-1.67v-1.35c0-.75-.13-1.25-.38-1.51-.18-.18-.7-.48-2.15-.87-1.18-.31-2.43-.47-3.74-.47-2.12,0-3.81,.41-5.01,1.2-1.19,.79-1.79,1.81-1.79,3.03,0,.77,.24,1.44,.72,1.99,.49,.56,1.15,.97,1.98,1.22,.84,.25,2.66,.48,5.42,.68,2.82,.2,4.67,.47,5.67,.81,1,.34,1.81,.9,2.41,1.65,.6,.76,.91,1.67,.91,2.71,0,2.08-1.16,3.88-3.46,5.37-2.28,1.48-5.35,2.22-9.14,2.22Z"/>
    </g>
    <path d="M240.28,48.98l-.13,.06c-1.02,.47-1.78,.72-2.27,.72-1,0-2.12-.17-3.34-.49-1.16-.31-2.41-.82-3.71-1.52,1.18-.95,2.03-1.85,2.53-2.68,.53-.88,.8-1.75,.8-2.59,0-.33-.07-.73-.19-1.19,2.34,.06,4.23,.18,5.62,.34l.13,.02,.02-.13c.09-.59,.25-1.32,.46-2.17l.04-.17h-.18c-1.75,.01-3.86,.04-6.25,.09l-2.55,.05c-.77,0-1.86-.03-3.23-.08h-.06s-1.34,1.5-1.34,1.5l.18,.39h.54c1.48,0,2.45,.04,2.88,.13,.25,.05,.44,.17,.56,.35,.31,.44,.46,1.01,.46,1.68,0,.62-.14,1.22-.42,1.79-.27,.55-.77,1.16-1.48,1.81-3.26-2.18-6-4.79-8.16-7.74,3.89-2.06,5.86-4.16,5.86-6.25,0-.93-.35-1.68-1.03-2.23-.68-.54-1.62-.82-2.79-.82-.82,0-1.55,.12-2.17,.36-.43,.16-1.42,.75-3.04,1.79-.64,.42-1.08,.85-1.3,1.28-.33,.62-.5,1.37-.5,2.21,0,1.05,.38,2.34,1.12,3.83-2.21,1.03-3.73,1.94-4.52,2.71-1.18,1.17-1.78,2.52-1.78,4.03,0,1.78,.81,3.29,2.42,4.48,1.59,1.19,3.67,1.79,6.17,1.79,1.52,0,2.93-.18,4.21-.55,1.26-.36,2.67-1.02,4.19-1.95,2.75,1.66,5.18,2.5,7.24,2.5,.58,0,1.15-.07,1.69-.2l.05-.02c.69-.47,1.89-1.17,3.57-2.07l.11-.06-.41-.98Zm-20.89-14.71c0-.89,.23-1.55,.67-1.97,.45-.42,1.04-.64,1.76-.64,.6,0,1.09,.17,1.48,.53,.39,.35,.58,.83,.58,1.42,0,1.36-1.19,2.78-3.52,4.22-.65-1.39-.97-2.59-.97-3.56Zm7.14,14.58c-1.71,.92-3.38,1.38-4.98,1.38-1.91,0-3.53-.55-4.81-1.64-1.27-1.08-1.91-2.32-1.91-3.69,0-.83,.26-1.59,.76-2.26,.5-.66,1.36-1.33,2.58-1.98,2.45,3.27,5.26,6.02,8.36,8.18Z"/>
    <path d="M265.28,30.24c-1.31,0-5.63-.04-12.85-.11h-.16s.02,.15,.02,.15c.16,1.38,.24,2.41,.24,3.12l-.04,1.95h1.54l.3-2.15c.1-.72,.3-1.15,.57-1.25,.32-.11,2.15-.17,5.44-.17h1.93c.09,1.38,.13,2.92,.13,4.56v8.67c0,1.86-.07,3.4-.2,4.56-.06,.47-.21,.79-.44,.94-.25,.16-.81,.24-1.66,.24h-1.84v1.24h.14c2.33-.08,4.36-.11,6.03-.11s3.69,.04,6.06,.11h.14s0-1.23,0-1.23h-1.65c-1.66,0-2.09-.27-2.19-.43-.14-.21-.3-1.29-.3-5.24v-8.65c0-1.62,.07-3.19,.21-4.66h1.45c1.89,0,3.59,.04,5.05,.12,.6,.04,.82,.13,.91,.2,.05,.05,.19,.25,.3,1.13l.22,2.11h1.54v-.14c.04-1.57,.19-3.23,.45-4.93l.02-.16-11.35,.11Z"/>
    <g>
      <path class="cls-1" d="M61.9,31.54c-.15,1.52-.22,3.12-.22,4.79v8.65c0,3.22,.11,4.99,.32,5.32,.22,.33,.99,.49,2.31,.49h1.52v.96c-2.39-.07-4.41-.11-6.07-.11s-3.68,.04-6.03,.11v-.96h1.7c.89,0,1.47-.09,1.74-.26,.27-.18,.44-.52,.51-1.04,.13-1.18,.2-2.71,.2-4.58v-8.67c0-1.71-.05-3.28-.14-4.7h-2.06c-3.32,0-5.15,.06-5.49,.17-.34,.12-.56,.57-.67,1.36l-.28,2.03h-1.28l.04-1.8c0-.73-.08-1.78-.24-3.14,7.28,.07,11.57,.11,12.85,.11l11.19-.11c-.26,1.71-.41,3.36-.45,4.95h-1.28l-.2-1.99c-.08-.69-.2-1.09-.34-1.22-.15-.13-.48-.2-.99-.24-1.48-.08-3.17-.12-5.06-.12h-1.58Z"/>
      <path class="cls-1" d="M53.59,51.89v-1.24h1.84c1.07,0,1.49-.13,1.66-.24,.23-.15,.38-.47,.44-.94,.13-1.17,.2-2.71,.2-4.56v-8.67c0-1.65-.04-3.18-.13-4.56h-1.93c-3.3,0-5.13,.06-5.44,.17-.28,.1-.48,.53-.57,1.24l-.3,2.15h-1.54l.04-1.95c0-.72-.08-1.74-.24-3.12l-.02-.16h.16c7.22,.07,11.54,.11,12.85,.11l11.35-.11-.02,.16c-.26,1.7-.4,3.35-.44,4.93v.14h-1.54l-.22-2.11c-.1-.88-.24-1.08-.3-1.13-.08-.07-.31-.17-.91-.2-1.46-.08-3.16-.12-5.05-.12h-1.45c-.14,1.47-.21,3.04-.21,4.66v8.65c0,3.95,.16,5.03,.3,5.24,.11,.16,.53,.43,2.19,.43h1.66v1.24h-.14c-2.37-.07-4.41-.11-6.07-.11s-3.69,.04-6.02,.11h-.14Z"/>
    </g>
    <path d="M303.98,50.77c-.23,0-.45-.04-.66-.13-.21-.08-.66-.45-1.33-1.08l-3.88-3.78c-1.86-1.8-3.45-3.41-4.73-4.78,2.49-.42,4.43-1.17,5.77-2.23,1.4-1.11,2.1-2.42,2.1-3.89,0-1-.33-1.88-.97-2.6-.64-.71-1.59-1.27-2.81-1.64-1.22-.37-3.02-.56-5.35-.56-.85,0-2.26,.03-4.19,.08-1.66,.05-2.96,.08-3.84,.08-1.33,0-3.26-.04-5.74-.11h-.14s0,1.23,0,1.23h1.23c1.64,0,2.17,.27,2.32,.5,.16,.24,.35,1.34,.35,5.19v7.3c0,4.45-.17,5.67-.31,5.92-.13,.23-.57,.5-1.94,.5h-1.66v1.24h.14c3.02-.07,5.14-.11,6.29-.11,1.46,0,3.33,.04,5.56,.11h.14s0-1.23,0-1.23h-1.72c-1.49,0-1.97-.28-2.11-.52-.15-.25-.32-1.47-.32-5.87v-7.33c0-1.79,.08-3.49,.23-5.05,1.38-.37,2.77-.56,4.14-.56,2,0,3.54,.36,4.6,1.08,1.05,.71,1.56,1.68,1.56,2.94,0,1.4-.62,2.54-1.85,3.38-1.25,.85-3,1.28-5.21,1.28-.37,0-.96-.03-1.73-.08h-.1s-.28,.7-.28,.7l.08,.06c1.51,1.26,2.95,2.58,4.28,3.91l7.16,7.25,.05,.05h.06c.84-.08,1.65-.11,2.42-.11,.83,0,1.81,.04,2.92,.11h.15s0-1.23,0-1.23h-.66Z"/>
    <g>
      <path d="M327.36,25.73c-.46-.34-1.01-.51-1.64-.51s-1.21,.17-1.66,.51c-.47,.35-.7,.78-.7,1.28s.24,.94,.71,1.29c.46,.34,1.02,.51,1.65,.51s1.19-.17,1.64-.51c.47-.35,.7-.79,.7-1.29s-.24-.93-.7-1.28Z"/>
      <path d="M336.24,50.77c-1.27-.05-1.77-.14-1.96-.21-.28-.1-.52-.26-.73-.49-.15-.17-.51-.68-1.36-2.17l-10.28-17.93h-1.54l-.04,.08c-.53,1.12-1.55,2.96-3.03,5.45l-5.56,9.45c-.98,1.66-1.97,3.25-2.93,4.72-.29,.47-.57,.77-.82,.88-.26,.12-.86,.19-1.78,.21l-.74,.02v1.24h.15c1.46-.08,3.18-.11,5.11-.11,1.61,0,3.08,.04,4.36,.11h.15s0-1.22,0-1.22l-2.07-.18c-.83-.07-1.12-.16-1.22-.22-.13-.08-.19-.2-.19-.38,0-.23,.23-.92,1.34-2.91l1.33-2.37h11.54l2.18,4.14c.51,.98,.59,1.27,.59,1.36,0,.08-.02,.19-.23,.3-.07,.03-.31,.1-1.22,.15l-2.14,.1v1.23h.14c2.46-.07,4.45-.11,5.92-.11,1.58,0,3.27,.04,5.01,.11h.14s0-1.23,0-1.23h-.13Zm-11.19-7.58h-9.72l4.86-8.69,4.86,8.69Z"/>
      <path d="M315.27,28.31c.46,.34,1.02,.51,1.66,.51s1.19-.17,1.64-.51c.47-.35,.7-.79,.7-1.29s-.24-.93-.7-1.28c-.45-.34-1-.51-1.64-.51s-1.21,.17-1.66,.51c-.46,.35-.7,.78-.7,1.28s.24,.94,.7,1.29Z"/>
    </g>
    <path d="M370.61,30.13c-1.96,.07-3.6,.11-4.85,.11s-2.9-.04-5.05-.11h-.14s0,1.22,0,1.22l1.65,.11c1.63,.12,2.11,.42,2.23,.65,.13,.25,.28,1.59,.28,6.62v9.45c-1.13-.92-2.86-2.46-5.17-4.58l-6.92-6.37c-1.33-1.23-2.53-2.37-3.67-3.5-1.21-1.18-2.48-2.39-3.78-3.58l-.04-.04h-.06c-1.15,.07-2.22,.11-3.19,.11-.91,0-2.22-.04-3.92-.11h-.14s0,1.23,0,1.23h1.39c.61,0,1.08,.08,1.42,.24,.33,.16,.59,.35,.75,.55,.16,.19,.25,.57,.28,1.12,.04,1.43,.06,2.84,.06,4.2v7.54c0,1.9-.07,3.42-.22,4.52-.06,.49-.21,.82-.45,.98-.25,.17-.8,.25-1.64,.25h-1.6v1.24h.14c2.95-.07,4.86-.11,5.67-.11,1.18,0,2.52,.04,3.99,.11h.15s0-1.23,0-1.23l-1.43-.08c-1.3-.09-1.74-.22-1.87-.32-.13-.09-.31-.38-.42-1.22-.12-.92-.18-2.6-.18-4.98v-10.17l14.31,13.27c1.66,1.53,3.25,2.92,4.72,4.15,.28,.23,.58,.4,.9,.5,.31,.1,1.36,.25,3.22,.47l.17,.02v-.17c-.23-2.56-.34-4.78-.34-6.59v-6.84c0-3.99,.06-6.21,.18-6.61,.17-.56,.85-.84,2.03-.84h1.7v-1.24h-.14Z"/>
    <path d="M380.67,32.8c.05-.81,.23-1.1,.37-1.2,.15-.11,.57-.23,1.73-.23h1.7v-1.24h-.15c-1.47,.08-3.14,.11-4.96,.11-2.19,0-4.42-.04-6.64-.11h-.14s0,1.23,0,1.23h1.78c1.02,0,1.63,.18,1.82,.55,.14,.27,.31,1.64,.31,6.63v5.14c0,4.82-.19,6.18-.36,6.47-.22,.4-.94,.61-2.13,.61h-1.41v1.24h.14c1.83-.08,3.91-.11,6.18-.11,1.95,0,3.77,.04,5.43,.11h.14s0-1.23,0-1.23h-1.48c-1.48,0-1.96-.29-2.1-.53-.15-.26-.33-1.59-.33-6.43v-5.24c0-2.73,.03-4.68,.1-5.77Z"/>
    <path d="M419.01,30.13c-1.96,.07-3.6,.11-4.85,.11s-2.91-.04-5.06-.11h-.14s0,1.22,0,1.22l1.65,.11c1.63,.12,2.11,.42,2.22,.65,.13,.25,.28,1.6,.28,6.62v9.45c-1.12-.92-2.86-2.46-5.17-4.58l-6.92-6.37c-1.27-1.18-2.51-2.36-3.67-3.5-1.18-1.15-2.45-2.36-3.78-3.58l-.04-.04h-.06c-1.15,.07-2.22,.11-3.19,.11-.91,0-2.22-.04-3.92-.11h-.14s0,1.23,0,1.23h1.39c.61,0,1.09,.08,1.41,.24,.33,.16,.59,.35,.75,.55,.16,.19,.26,.57,.28,1.12,.04,1.43,.06,2.84,.06,4.2v7.54c0,1.9-.07,3.42-.22,4.52-.06,.49-.21,.82-.45,.98-.17,.11-.59,.25-1.64,.25h-1.6v1.24h.14c2.95-.07,4.86-.11,5.67-.11,1.18,0,2.52,.04,3.99,.11h.15s0-1.23,0-1.23l-1.43-.08c-1.3-.09-1.74-.22-1.87-.32-.13-.09-.31-.38-.42-1.22-.12-.92-.18-2.6-.18-4.98v-10.17l14.31,13.27c1.64,1.51,3.23,2.91,4.72,4.15,.28,.23,.58,.4,.9,.5,.31,.1,1.36,.25,3.22,.47l.17,.02v-.17c-.23-2.54-.34-4.76-.34-6.59v-6.84c0-3.99,.06-6.21,.18-6.61,.17-.56,.85-.84,2.03-.84h1.7v-1.24h-.14Z"/>
    <path d="M450.39,44.08v-1l-.15,.02c-.91,.1-2.03,.15-3.32,.15-1.51,0-3.82-.05-6.87-.15h-.14s0,1.22,0,1.22l2.52,.16c1.64,.11,2,.17,2.07,.2,.1,.04,.17,.13,.21,.27,.03,.12,.08,.59,.08,2.12,0,.93-.04,1.81-.11,2.61-2.49,.7-4.83,1.05-6.97,1.05-4.14,0-7.45-1.11-9.84-3.3-2.02-1.85-3.05-4.15-3.05-6.85s1.14-5.09,3.38-6.79c2.07-1.57,5.11-2.37,9.02-2.37,2.22,0,4.21,.24,5.93,.72,1.71,.47,2.78,.87,3.17,1.18,.1,.08,.27,.4,.27,1.64v1.14h1.54v-.12c.22-1.91,.51-3.41,.86-4.46l.05-.15-1.87-.38c-2.09-.45-3.82-.76-5.13-.91-1.3-.15-2.75-.23-4.3-.23-3.81,0-7,.48-9.48,1.43-2.49,.95-4.47,2.3-5.86,4.02-1.41,1.72-2.12,3.72-2.12,5.92s.66,4.07,1.97,5.75c1.3,1.67,3.19,3,5.61,3.94,2.41,.94,5.25,1.41,8.44,1.41,2.07,0,4.26-.16,6.51-.48,2.25-.32,4.3-.75,6.1-1.27l.12-.03-.02-.12c-.2-1.14-.3-2.19-.3-3.12,0-.85,.1-1.69,.28-2.5l1.43-.71Z"/>
    <g>
      <path class="cls-1" d="M46.07,44.13c.44,.71,2.63,4.77-2.76,7.17-3.51,1.56-9.68,.17-10.27-4.08-.69-4.9,4.97-5.91,4.97-5.91,0,0-3.28-1.83-1.76-4.52,1.82-3.24,7.98-1.65,8,.27,0,0-.14,.17-.32,0-.95-.91-3.48-1.89-5.31-.23-1.5,1.35-.63,3.43,.22,4.38,0,0,2.65,.17,3.37,1.08,.3,.38-.48,.28-1.25,.17-4.82-.72-5.83,3.29-5.58,4.67,.68,3.77,5.67,5.07,8.87,3.08,3.53-2.2,1.46-6.09,1.02-5.82-1.55,.97-4.65,1.34-4.79,3.7-.05,.83-.98,0-.53-1.68,.29-1.05,.95-2.13,8.22-4.72,0,0,2.26-.76,2.03-2.19-.06-.35-.26-.6-.45-.64-1.04-.23-.29,1.75-1.99,1.44-.36-.07-.71-.35-.77-.71-.09-.6,.34-1.26,1.27-1.42,1.53-.26,2.54,.47,2.61,1.93,.12,2.59-4.85,3.91-4.77,4.04Z"/>
      <path class="cls-1" d="M40.1,51.99c-3.21,0-6.69-1.63-7.12-4.76-.62-4.44,3.95-5.73,4.86-5.95-.41-.26-1.6-1.1-1.96-2.37-.2-.71-.1-1.44,.31-2.16,.93-1.65,2.8-1.89,3.83-1.89,2.19,0,4.27,1.07,4.29,2.19v.02s-.02,.02-.02,.02c0,0-.08,.09-.2,.09-.07,0-.15-.03-.21-.1-.56-.53-1.72-1.11-2.92-1.11-.88,0-1.66,.29-2.31,.88-1.45,1.31-.65,3.31,.21,4.27,.29,.02,2.69,.22,3.38,1.11,.03,.04,.11,.14,.06,.24-.04,.09-.16,.13-.39,.13-.26,0-.63-.05-.98-.1-.38-.06-.74-.08-1.09-.08-1.47,0-2.62,.49-3.43,1.46-.94,1.13-1.11,2.57-.99,3.21,.49,2.72,3.17,3.96,5.45,3.96,1.21,0,2.36-.32,3.32-.92,2.39-1.49,2.08-3.63,1.83-4.49-.23-.79-.6-1.23-.73-1.23,0,0-.01,0-.02,0-.43,.27-.98,.49-1.56,.73-1.46,.59-3.1,1.26-3.2,2.93-.02,.35-.18,.38-.25,.38-.09,0-.18-.06-.26-.17-.23-.29-.4-.98-.15-1.92,.31-1.14,1.12-2.22,8.26-4.76,.02,0,2.2-.76,1.98-2.12-.05-.34-.25-.56-.4-.59-.38-.08-.48,.14-.62,.56-.14,.41-.31,.92-1.02,.92-.11,0-.22-.01-.35-.03-.36-.07-.76-.35-.82-.76-.1-.61,.33-1.32,1.32-1.49,.21-.03,.41-.05,.59-.05,1.25,0,2.03,.76,2.09,2.04,.1,2.12-3.12,3.4-4.33,3.88-.18,.07-.35,.14-.42,.18,.32,.52,1.16,2.15,.62,3.9-.42,1.37-1.58,2.48-3.44,3.31-.92,.41-2.04,.63-3.23,.63Z"/>
    </g>
    <path d="M40.93,0C18.33,0,0,18.33,0,40.94s18.33,40.94,40.93,40.94,40.94-18.33,40.94-40.94S63.54,0,40.93,0Zm.05,79.97C19.48,79.97,2.04,62.53,2.04,41.02S19.48,2.06,40.99,2.06s38.95,17.44,38.95,38.95-17.44,38.95-38.95,38.95Z"/>
  </g>
</svg>